<?xml version="1.0" encoding="utf-8"?>
<!-- Generator: Adobe Illustrator 22.0.1, SVG Export Plug-In . SVG Version: 6.00 Build 0)  -->
<svg version="1.1" id="Calque_1" xmlns="http://www.w3.org/2000/svg" xmlns:xlink="http://www.w3.org/1999/xlink" x="0px" y="0px"
	 viewBox="0 0 432 432" style="enable-background:new 0 0 432 432;" xml:space="preserve">
<style type="text/css">
	.st0{fill:#B78D5C;}
	.st1{fill:#EBCEC6;}
	.st2{fill:#D4B67E;}
	.st3{fill:#EF798A;}
	.st4{fill:#FBD8E3;}
	.st5{fill:#660A1E;}
	.st6{fill:#990033;}
	.st7{fill:#07512C;}
	.st8{fill:#8CC63F;}
	.st9{fill:#006837;}
	.st10{fill:#CCCCCC;}
	.st11{fill:#FFFFFF;}
	.st12{fill:#8A1A31;}
	.st13{fill:#A7A6AA;}
	.st14{fill:#D3A9B2;}
	.st15{fill:#2A2A2B;}
	.st16{fill:#DDC090;}
	.st17{fill:#AF434B;}
	.st18{fill:#62A581;}
	.st19{fill:#94C16C;}
	.st20{fill:#B9011B;}
	.st21{fill:#BABABA;}
	.st22{fill:#754C24;}
	.st23{fill:#A67C52;}
	.st24{fill:#8C6239;}
	.st25{fill:#C69C6D;}
	.st26{fill:#9E1E28;}
	.st27{fill:#D6C188;}
	.st28{fill:#BF364A;}
	.st29{fill:#A1272D;}
	.st30{fill:#BFA76B;}
	.st31{fill:#DCDEDD;}
	.st32{fill:#D89A5D;}
	.st33{fill:#F5EDDB;}
	.st34{fill:#603813;}
	.st35{fill:#4A7575;}
	.st36{fill:#7F3244;}
	.st37{fill:#9E7E5E;}
	.st38{fill:#C1272D;}
	.st39{fill:#561217;}
	.st40{fill:#C49F7A;}
	.st41{fill:#534741;}
	.st42{fill:#999999;}
	.st43{fill:#A80031;}
	.st44{fill:#1A1A1A;}
	.st45{fill:#333333;}
	.st46{fill:#B3B3B3;}
	.st47{fill:#B3A6AD;}
	.st48{fill:#B6B155;}
	.st49{fill:#679CBA;}
	.st50{fill:#0071BC;}
	.st51{fill:#F7931E;}
	.st52{fill:#821119;}
	.st53{fill:#39B54A;}
	.st54{fill:#1B1464;}
	.st55{fill:#FAF3E3;}
	.st56{fill:#DCD2BD;}
	.st57{fill:#F5EDDA;}
	.st58{fill:#815D3C;}
	.st59{fill:#F69331;}
	.st60{fill:#BCA791;}
	.st61{fill:#F9D51D;}
	.st62{fill:#704638;}
	.st63{fill:#A7DBD7;}
	.st64{fill:#DED7CD;}
	.st65{fill:#E89024;}
	.st66{fill:#EACAAC;}
	.st67{fill:#D8B195;}
	.st68{fill:#A50423;}
	.st69{fill:#CC7312;}
	.st70{fill:#9EC5FF;}
	.st71{fill:#6D86B4;}
	.st72{fill:#2E363A;}
	.st73{fill:#FFCC00;}
	.st74{fill:#B58847;}
	.st75{fill:#563315;}
	.st76{fill:#ED0A3A;}
	.st77{fill:#A62714;}
	.st78{fill:#247E5B;}
	.st79{fill:#176041;}
	.st80{fill:#61B756;}
	.st81{fill:#EDDBAE;}
	.st82{fill:#3F3F3F;}
	.st83{fill:#595959;}
	.st84{fill:#484849;}
	.st85{fill:#EFD1B4;}
	.st86{fill:#E0E0E2;}
	.st87{fill:#CCCCCE;}
	.st88{fill:#CEC76B;}
	.st89{fill:#42210B;}
	.st90{fill:#FCACBC;}
	.st91{fill:#D6B994;}
	.st92{fill:#F8C2C2;}
	.st93{fill:#E4D48E;}
	.st94{fill:#A57C53;}
	.st95{fill:#96704B;}
	.st96{fill:#9D6D47;}
	.st97{fill:#591427;}
	.st98{fill:#7CCC71;}
	.st99{fill:#C7B299;}
	.st100{fill:#998675;}
	.st101{fill:#7DC34D;}
	.st102{fill:#80694F;}
	.st103{fill:#FF1C2E;}
	.st104{fill:#A51B29;}
	.st105{fill:#00673B;}
	.st106{fill:#B88464;}
	.st107{fill:#CA986F;}
	.st108{fill:#3F2316;}
	.st109{fill:#F1F1F2;}
	.st110{fill:#00924A;}
	.st111{fill:#C7202F;}
	.st112{fill:#BBBDBF;}
	.st113{fill:#58595B;}
	.st114{fill:#D0D2D3;}
	.st115{fill:#6C6E70;}
	.st116{fill:#663818;}
	.st117{fill:#FF9134;}
	.st118{fill:#AC8D6B;}
	.st119{fill:#CE1F32;}
	.st120{fill:#00B252;}
	.st121{fill:#804D34;}
	.st122{fill:#61A6AF;}
	.st123{fill:#4C838D;}
	.st124{fill:#E6E6E6;}
	.st125{fill:#E6E7E7;}
	.st126{fill:#55396B;}
	.st127{fill:#6F4696;}
	.st128{fill:#9C2D8C;}
	.st129{fill:#915D3F;}
	.st130{fill:none;}
	.st131{fill:#00BCB9;}
	.st132{fill:#00BBB8;}
	.st133{fill:#6C328D;}
	.st134{fill:#5D4A42;}
	.st135{fill:#746559;}
	.st136{fill:#009245;}
	.st137{fill:#808184;}
	.st138{fill:#00A69C;}
	.st139{fill:#0078B8;}
	.st140{fill:#9F847A;}
	.st141{fill:#EECCB3;}
	.st142{fill:#241F20;}
	.st143{fill:#0D5408;}
	.st144{fill:#C9800A;}
	.st145{fill:#083A04;}
	.st146{fill:#BF001A;}
	.st147{fill:#AA0012;}
	.st148{fill:#9E620B;}
	.st149{fill:#A80E28;}
	.st150{fill:#0C3A1F;}
	.st151{fill:#C10A0A;}
	.st152{fill:#0A3D06;}
	.st153{fill:#A30738;}
	.st154{fill:#7F0A2E;}
	.st155{fill:#D8712B;}
	.st156{fill:#C15105;}
	.st157{fill:#F4A00B;}
	.st158{fill:#10440A;}
	.st159{fill:#A00E0E;}
	.st160{fill:#0F230D;}
	.st161{fill:#B20B33;}
	.st162{fill:#E5E5E5;}
	.st163{fill:#11722D;}
	.st164{fill:#0B281A;}
	.st165{fill:#E59D1F;}
	.st166{fill:#C60924;}
	.st167{fill:#960820;}
	.st168{fill:#AD1431;}
	.st169{fill:#E24756;}
	.st170{fill:#CE364C;}
	.st171{fill:#A50707;}
	.st172{fill:#4A9B29;}
	.st173{fill:#468E24;}
	.st174{fill:#AF0E22;}
	.st175{fill:#EDECE6;}
	.st176{fill:#54220E;}
	.st177{fill:#592C1C;}
	.st178{fill:#EFEAC7;}
	.st179{fill:#042111;}
	.st180{fill:#A80C0C;}
</style>
<g>
	<g>
		<g>
			<g>
				<g>
					<path d="M170.5,315.4c-1.8,5.8-3,17.5-7,18.9c-3.9,1.4-14.5-2.2-15.7,4.3c-1.2,6.5,6.8,9,20.3,8.9c13.5-0.1,19,0.1,19.4-5.4
						c0.3-5.6,0-26.7,0-26.7H170.5z"/>
					<path d="M246,315.4c1.8,5.8,3,17.5,7,18.9c3.9,1.4,14.5-2.2,15.7,4.3c1.2,6.5-6.8,9-20.3,8.9c-13.5-0.1-19,0.1-19.4-5.4
						c-0.3-5.6,0-26.7,0-26.7H246z"/>
				</g>
				<g>
					<path d="M112.8,257.9c-4,10.8-8.7,26.2,3,28.1c11.8,1.9,9.7-13.4,11.6-14.3s3.2,7.8,6.8,5.7c3.6-2.1-1.7-16.5-1.7-16.5
						L112.8,257.9z"/>
					<path d="M297.4,260.7c4,10.8,8.7,26.2-3,28.1c-11.8,1.9-9.7-13.4-11.6-14.3c-1.9-0.9-3.2,7.8-6.8,5.7
						c-3.6-2.1,1.7-16.5,1.7-16.5L297.4,260.7z"/>
				</g>
			</g>
			<g>
				<g>
					<path class="st20" d="M301.4,262.9c0,0.2-0.1,0.4-0.2,0.5c-0.8,2.6-2.6,4-5.3,4.4c-2.3,0.3-4.5,0.5-6.8,0.6c-1,0-2,0-3.1,0
						c0,0,0,0,0,0c-1,0-2.1,0-3.1-0.1c-2.6-0.1-5.2-0.5-7.7-1.3c-0.4-0.1-0.8-0.3-1.2-0.4c-1.9-0.8-3.3-2.1-3.9-4.1
						c-0.5-1.6-1-3.1-1.6-4.7c-0.3-0.9-0.6-1.8-0.9-2.6c-0.8-2.2-1.5-4.4-2.3-6.5c-0.9-2.3-2.1-4.5-3.7-6.4
						c-0.4-0.4-0.8-0.8-1.2-1.2c-0.1,0-0.2,0.1-0.2,0.1c0,0.3,0,0.7,0,1c0.2,2.7,0.3,5.3,0.5,8c0.1,1.6,0.2,3.3,0.3,4.9
						c0.2,3.8,0.5,7.6,0.7,11.4c0,0.3,0,0.6,0.1,0.9c0.3,4.3,0.5,8.7,0.8,13c0.3,5.2,0.7,10.4,1.1,15.5c0.5,5.8,0.7,11.7,0.5,17.6v0
						c-0.1,2.4-0.3,4.8-0.9,7.1c-0.2,0.8-0.5,1.6-0.9,2.4c-0.8,1.6-2.1,2.5-3.9,2.7c-1.4,0.1-2.7,0.3-4.1,0.2
						c-11.3-0.4-22.7-0.2-34-0.2c-1.1,0-2.2-0.1-3.2-0.2c-2.1-0.3-3.4-1.5-3.9-3.5c-0.3-1.4-0.6-2.8-0.7-4.2c0-0.3,0-0.6-0.1-0.8
						c-0.4-5-0.8-9.9-1.1-14.9c-0.4-4.5-0.6-9-1.7-13.5c-0.5-2-1.1-4-1.7-6c-0.2-0.7-0.5-1.3-0.9-1.9c-0.4-0.7-0.9-1-1.8-1.3
						c-0.1,0.4-0.3,0.9-0.4,1.3c-0.3,2.2-0.6,4.4-0.7,6.6c-0.3,4.2-0.4,8.5-0.7,12.7c-0.3,4.1-0.5,8.2-0.9,12.2
						c-0.1,0.8-0.2,1.7-0.3,2.5c-0.3,2-0.6,4-1.2,5.9c-0.3,1.1-0.7,2.1-1.3,3.1c-1,1.9-2.6,2.8-4.7,2.9c-0.9,0-1.8,0.1-2.8,0.1
						c-5.2-0.1-10.5-0.1-15.7-0.3c-3.9-0.1-7.7-0.4-11.6-0.7c-2-0.2-3.9-0.6-5.9-0.9c-0.5-0.1-0.9-0.3-1.4-0.4
						c-2.1-0.8-3.4-2.2-3.9-4.3c-0.3-1.1-0.5-2.3-0.5-3.5c0-0.4,0-0.8-0.1-1.2c-0.2-2.6-0.3-5.2-0.4-7.9c-0.5-13-0.6-26-0.8-38.9
						c0-0.7,0-1.5,0-2.2c-0.1-4.6-0.2-9.2-0.4-13.8c0-1.2-0.1-2.5-0.2-3.7c-0.1-3-0.4-5.9-0.7-8.9c0-0.2-0.1-0.4-0.1-0.8
						c-0.3,0.3-0.6,0.5-0.8,0.7c-1,1.1-1.9,2.3-2.6,3.6c-1.8,3.4-3.4,6.8-5,10.3c-0.4,1-0.9,1.9-1.3,2.9c-0.5,1.1-1,2.1-1.6,3.1
						c-1.1,1.8-2.6,2.7-4.8,2.9c-4,0.2-7.9,0-11.9-0.3c-0.4,0-0.8,0-1.1,0c-2.5,0-5.1,0.1-7.6-0.5c-0.8-0.2-1.5-0.5-2.2-0.8
						c-1.4-0.7-2.1-2-2.1-3.6c0-2.3,0.3-4.5,0.9-6.7c0.1-0.3,0.1-0.6,0.2-0.8c1.1-3.9,2.5-7.7,4.2-11.4c4.4-9.5,10.1-18.2,16.5-26.5
						c3.8-4.9,8.2-9.3,13.2-13.1c1.2-0.9,2.4-1.7,3.6-2.5c5.7-3.5,11.7-6.7,17.8-9.4c7.3-3.2,14.8-5.5,22.6-7
						c2.8-0.5,5.7-1.1,8.5-1.6c4.9-0.8,9.9-0.9,14.9-0.7c8.5,0.3,16.8,2.1,24.8,4.8c2.9,1,5.8,1.8,8.7,2.8c3.8,1.2,7.4,2.8,10.9,4.7
						c11.9,6.5,21.7,15.3,29.5,26.4c6.3,9,10.6,18.8,13.1,29.5c0.6,2.6,1.1,5.2,1.7,7.8c0.2,0.9,0.4,1.8,0.5,2.7
						C301.8,258.7,301.9,260.8,301.4,262.9z"/>
				</g>
				<g>
					<g>
						<path d="M261.9,267.4c-1.3,0.2-2.7,0.4-4,0.6c-3.8,0.5-7.6,1.1-11.4,1.4c-3.9,0.4-7.8,0.6-11.7,0.8c-3,0.2-6,0.3-9,0.4
							c-5.5,0.3-11,0.4-16.5,0.3c-9.2-0.1-18.3-0.1-27.5-0.3c-6.1-0.1-12.2-0.4-18.2-0.7c-3.4-0.1-6.8-0.3-10.2-1.1
							c-0.3-0.1-0.7-0.2-1-0.3c0-0.7,0-1.5,0-2.2c-0.1-4.6-0.2-9.2-0.4-13.8c2-0.1,4,0.2,6.1,0.4c2.2,0.2,4.4,0.4,6.6,0.5
							c5.6,0.2,11.2,0.4,16.8,0.5c10.9,0.2,21.7,0.4,32.6,0c6.4-0.3,12.8-0.6,19.3-1c4.9-0.3,9.9-0.7,14.8-1.2
							c3.2-0.3,6.3-0.8,9.4-1.2c1.1-0.1,2.2-0.3,3.4-0.4c0.1,1.6,0.2,3.3,0.3,4.9c0.2,3.8,0.5,7.6,0.7,11.4
							C261.8,266.8,261.9,267.1,261.9,267.4z"/>
						<g>
							<path class="st55" d="M230.2,330.6c-1.7,0-3-0.4-4.2-1c-0.6-0.3-1.2-0.7-1.8-1.1c-0.7-0.5-1.4-0.5-2.2-0.3
								c-0.9,0.2-1.8,0.5-2.8,0.6c-1.4,0.3-2.9,0.5-4.3,0.1c-0.7-0.2-1.4-0.5-2-0.9c-1.6-1.1-2.8-2.6-3.4-4.4
								c-0.9-2.3,0.3-5.2,2.6-6.3c2.5-1.2,5.1-1.8,7.8-0.8c0.7,0.3,1.5,0.4,2.2,0.7c1.2,0.4,2.4,0.3,3.7,0c1.3-0.4,2.6-0.7,3.9-1
								c1.8-0.4,3.6-0.3,5.4,0.2c0.2,0.1,0.5,0.1,0.7,0.2c1.2,0.5,2.4,0.4,3.6,0.1c1.9-0.6,3.8-1,5.8-0.9c1.1,0.1,2.2,0.2,3.3,0.4
								c0.9,0.1,1.7,0.1,2.5-0.2c2.6-0.8,5.3-1.1,8-1.2c0.8,0,1.5-0.3,2.3-0.5c1.5-0.4,3.1-0.9,4.6-1.1c4-0.6,7.2,2.7,6.7,6.7
								c-0.2,1.7-0.5,3.4-0.9,5.1c-0.8,3.9-4.2,7-8.2,7.5c-1.3,0.2-2.5-0.1-3.8-0.4c-1.6-0.3-3.2-0.6-4.9-0.9
								c-1.7-0.3-3.3,0-4.9,0.5c-1.3,0.4-2.7,0.8-4,1.1c-1.7,0.3-3.3,0-4.9-0.7c-1.1-0.5-2.3-1-3.4-1.6c-1.5-0.8-3-0.9-4.6-0.5
								C232.1,330.4,231,330.5,230.2,330.6z"/>
							<path class="st55" d="M187.5,329.6c-1.7-0.2-3.3-0.4-4.9-0.7c-2.2-0.5-4.5-0.4-6.7-0.1c-3.3,0.4-6.5,0.3-9.6-1
								c-0.1,0-0.1,0-0.2-0.1c-3.2-1.1-3.2-1.1-6.6-0.8c-1.2,0.1-2.5,0.1-3.7-0.1c-2.4-0.4-4.6-2.9-5-5.3c-0.2-1.1,0.1-2.1,0.6-3.1
								c1.3-2.2,4.6-4.4,7.1-4.7c1.1-0.1,2.1-0.2,3.2-0.1c1.4,0,2.8-0.2,4.1-0.6c1-0.3,2-0.6,3-0.8c1.8-0.4,3.7-0.3,5.4,0.3
								c1.3,0.4,2.5,0.8,3.8,1.3c1.5,0.6,3.1,0.6,4.7,0.3c0.9-0.2,1.9-0.4,2.8-0.6c1.5-0.3,3-0.3,4.4,0.2c2.3,0.8,4.6,1,7,0.7
								c1.3-0.2,2.6-0.2,3.9,0c5.6,1.1,6.5,7.3,3.6,10.5c-1.3,1.5-3,2.4-5,2.7c-0.9,0.1-1.8,0.2-2.7,0.2c-1,0-1.9,0.2-2.8,0.5
								c-1.2,0.4-2.5,0.8-3.7,1.1C189.4,329.4,188.4,329.5,187.5,329.6z"/>
							<path class="st55" d="M118.2,251.3c0.7-0.3,1.5-0.7,2.3-1c2.2-0.9,4.4-0.9,6.3,0.5c1.5,1.1,3.1,1.6,5,1.1
								c0.4-0.1,0.8-0.1,1.2-0.1c1.6-0.2,3.1,0.1,4.4,1.1c1,0.7,2.1,1,3.4,0.8c2.6-0.4,4.8,1,5.3,3.4c0.3,1.3,0.2,2.7-0.4,3.9
								c-0.5,1-1.1,2-1.9,2.9c-1.2,1.5-2.8,2.4-4.8,2.3c-1.9,0-3.7-0.1-5.6-0.3c-0.7-0.1-1.3,0-1.9,0.3c-0.7,0.4-1.5,0.7-2.3,1
								c-2.1,0.7-4.1,0.4-5.9-0.8c-0.4-0.3-0.9-0.6-1.3-1c-0.4-0.3-0.7-0.6-1.1-0.9c-0.8-0.6-1.7-0.8-2.7-0.4
								c-2.4,0.9-4.6,0.4-6.7-0.8c-0.2-0.1-0.4-0.2-0.6-0.4c-0.7-0.5-1.4-0.7-2.2-0.7c-2.6,0-4.4-2.4-4-5.1c0.5-4.2,5-7.9,9.7-6.9
								c0.6,0.1,1.2,0.2,1.8,0.4C116.9,250.7,117.5,251,118.2,251.3z"/>
							<path class="st55" d="M294.5,270.3c-1.4-0.3-2.8-0.4-4.1-0.8c-1.9-0.6-3.8-0.6-5.7,0.1c-1.9,0.7-4,0.9-6,0.3
								c-0.8-0.2-1.5-0.6-2.3-0.9c-0.9-0.5-1.9-0.6-2.9-0.5c-1.6,0.3-3.1,0.1-4.6-0.5c-0.7-0.3-1.3-0.6-1.9-1.1
								c-2.1-1.7-2.3-4.3-0.4-6.3c0.4-0.4,0.8-0.9,1.2-1.3c1.3-1.4,3-1.9,4.8-1.7c1.1,0.1,2.1,0.3,3.2,0.6c1.6,0.5,3.2,0.4,4.8-0.2
								c1-0.4,2-0.7,3-1.1c2-0.7,4-0.9,6.1-0.6c0.2,0,0.4,0,0.7,0.1c1.7,0.2,3.3,0,4.8-0.7c1.4-0.7,2.8-1.2,4.4-1.1
								c1.8,0.1,3.5,0.5,5,1.3c2.1,1.1,3.2,2.8,3.1,5.2c0,1.2-0.4,2.3-1.4,3c-0.8,0.6-1.7,1-2.5,1.5c-0.6,0.3-1.2,0.6-1.7,1
								c-0.7,0.6-1.4,1.2-2.1,1.8C298.4,269.6,296.6,270.2,294.5,270.3z"/>
						</g>
						<path class="st65" d="M203.8,233.8c0-1.2,1.1-2.3,2.4-2.3c1.6,0,2.9,1.3,2.9,2.9c0,1.3-1.2,2.5-2.5,2.5
							C205,236.8,203.8,235.4,203.8,233.8z"/>
						<path class="st65" d="M209.5,242c0,1.4-1.1,2.7-2.3,2.7c-1.5,0-2.7-1-2.7-2.5c0-1.3,1.2-2.6,2.6-2.6
							C208.3,239.6,209.5,240.7,209.5,242z"/>
					</g>
					<g>
						<path class="st65" d="M216.8,274.2l-19,0.1c-2.3,0-4.2-1.9-4.3-4.2l-0.1-15.3c0-2.3,1.9-4.3,4.2-4.3l19-0.1
							c2.3,0,4.2,1.9,4.3,4.2l0.1,15.3C221,272.3,219.1,274.2,216.8,274.2z M197.6,252.9c-1.1,0-2,0.9-1.9,2l0.1,15.3
							c0,1.1,0.9,2,2,1.9l19-0.1c1.1,0,2-0.9,1.9-2l-0.1-15.3c0-1.1-0.9-2-2-1.9L197.6,252.9z"/>
					</g>
				</g>
			</g>
		</g>
		<g>
			<circle class="st66" cx="205.7" cy="169.6" r="36.5"/>
			<g>
				<path class="st20" d="M164.9,148.4c-6.1-23.1-9-53.7-22.6-56.8c14.1-4,102.2-16.3,103.1,48.5c-34.7-19-41.7-19.9-51.5-17.1
					C184,125.8,164.9,148.4,164.9,148.4z"/>
				<path class="st57" d="M253.3,166.3c-0.1-1.7-0.4-3.1-0.8-4.1c1.7-4.8,1.9-10.9-0.6-18.3c-6.3-19.3-27.8-31.9-42.4-31.9
					c-14.6,0-35.1,2.4-46.8,25.1c-6,11.6-6,20.7-2.8,27.2c-0.3,0.6-0.5,1.3-0.5,2.1c-0.6,11.6,7.9,58.9,46.9,58.9
					C243.2,225.2,254.5,183.2,253.3,166.3z M204.6,164.9c-7.3-0.1-16.4-1.9-24.6-3.1c5.9-16,11.6-23.7,25.7-24.7
					c13.8-0.9,21,9.1,26.8,24.4C225.2,163.1,216,165,204.6,164.9z"/>
				<circle class="st57" cx="142.3" cy="91.7" r="7.2"/>
			</g>
			<g>
				<g>
					<g>
						<g>
							<path d="M190.8,154.9c2.4-3.6,7.2-2.7,10.2-0.5c1.6,1.1,3-1.5,1.5-2.6c-4.5-3.2-11-3.2-14.3,1.6
								C187.2,155,189.7,156.5,190.8,154.9L190.8,154.9z"/>
						</g>
						<g>
							<path d="M222.9,153.4c-3.3-4.9-9.8-4.8-14.3-1.6c-1.5,1.1-0.1,3.7,1.5,2.6c3-2.2,7.8-3,10.2,0.5
								C221.4,156.5,224,155,222.9,153.4L222.9,153.4z"/>
						</g>
					</g>
					<ellipse class="st67" cx="206.3" cy="165.1" rx="7.6" ry="4.5"/>
				</g>
				<g>
					<path d="M215.2,180.1c-2.6,1.5-6,2.8-8.9,2.8c-3,0-6.6-1.3-9.2-2.8c-2.4-1.4-4-3-3.6-3.9c0.1-0.1,0.2-0.3,0.3-0.4
						c2.5-1.5,8.8,0.6,12.5,0.6c3.1,0,11.7-2.8,13.3-1.3c0.1,0.1,0.1,0.2,0.2,0.3C220,176.6,218,178.5,215.2,180.1z"/>
					<path class="st20" d="M215.2,180.1c-2.6,1.5-6,2.8-8.9,2.8c-3,0-6.6-1.3-9.2-2.8c2.8-0.2,5.9-0.2,9.2-0.2
						C209.5,179.9,212.5,180,215.2,180.1z"/>
					<path class="st11" d="M219.8,175.6c-3.6,1-9.1,2.3-13.4,2.3c-5.6,0-8.6-0.6-12.8-1.6c0.1-0.1,0.2-0.3,0.3-0.4
						c2.5-1.5,8.8,0.6,12.5,0.6c3.1,0,11.7-2.8,13.3-1.3C219.7,175.4,219.7,175.5,219.8,175.6z"/>
				</g>
			</g>
		</g>
	</g>
	<g>
		<g>
			<path class="st20" d="M327,191.8c-95.5,6.8-33.1-68.4-31.7-74.2c1.4-5.8-11.5-2.2-11.8-7l0-0.1c-0.5-10.4,16.7-8.4,28.1-9.3
				c11.4-0.8,28.5-13.3,31.2-8.4c0.7,1.2,0.7,3,0.3,5c0,0,0,0,0,0c-1.1,6-5.4,13.9-3.1,14.5C357.8,116.4,422.6,185,327,191.8z"/>
			<path class="st52" d="M343.1,97.8C343.1,97.8,343.1,97.9,343.1,97.8c-6.1,9.9-9.2,0.4-13.5,1c-4.3,0.6-11.9,8.9-18.5,10.6
				c-6.6,1.7-7.9-2.5-17.7,0.3c-5.5,1.6-8.3,1.9-9.9,0.8l0-0.1c-0.5-10.4,16.7-8.4,28.1-9.3c11.4-0.8,28.5-13.3,31.2-8.4
				C343.5,94.1,343.5,95.9,343.1,97.8z"/>
		</g>
		<path class="st65" d="M374.2,137.7c-8.9,3.4-19,2-26.7-3.5c-3.5-2.5-6.5-5.7-8.6-9.5c-1.3-2.2-2-4.4-2.3-6.9
			c-0.2-1.2-0.4-2.4-0.8-3.5c0,0,0,0,0,0c0.6-0.4,0.9-1,0.9-1.5c0.4-0.1,0.8-0.1,1.2-0.2c1.7-0.3,3.6-0.3,4.2-2.3
			c0.4-1.6-2-2-2.5-0.5c0.1-0.2-0.8,0.1-0.8,0.1c-0.4,0.1-0.9,0.2-1.4,0.2c-0.7,0.1-1.3,0.2-2,0.3c-0.6-0.6-1.3-1.1-1.8-1.4
			c-0.8-0.3-1.4,0.1-1.7,0.7c-0.1,0-0.1,0-0.2,0c-0.7,0-1.2,0.7-1.2,1.3c0,0.1,0,0.1,0,0.2c-0.7,0.1-1.4,0.2-2.1,0.4
			c-3.9,0.6-7.8,1.3-11.7,1.9c-3.9,0.6-7.8,1.2-11.7,1.8c-2,0.3-4,0.6-6,0.9c-1.1,0.2-2.6,0.6-3.8,0.3c0.5-1.1-1.1-2.3-2.2-1.3
			c-1.5,1.4-0.5,3.1,1.2,3.6c1.9,0.6,4.1,0,6.1-0.3c5-0.7,10-1.5,14.9-2.3c5-0.8,9.9-1.6,14.9-2.4c0.4-0.1,0.7-0.1,1.1-0.2
			c-1.4,3.6-1.9,7.6-1.1,11.4c0.8,4.2,2.9,8.1,5.4,11.5c2.8,3.9,6.1,7.4,8.8,11.3c2.5,3.6,4.6,7.6,6.2,11.7
			c1.8,4.8,2.8,9.7,3.1,14.8c0.1,1.6,2.6,1.4,2.5-0.2c-0.5-8.5-3.1-16.8-7.3-24.1c-4.5-7.7-11.9-13.7-15.2-22.1
			c-1.6-4.1-1.7-8.6-0.3-12.7c0.6,1.5,0.6,3.1,1,4.7c0.5,2.5,1.6,4.8,2.9,7c2.4,3.9,5.8,7.3,9.6,9.8c8.2,5.5,18.8,6.8,28.1,3.3
			C376.5,139.5,375.7,137.1,374.2,137.7z"/>
	</g>
	<g>
		<g>
			<path class="st20" d="M105.3,181.5l-50.2-13.4c-0.8-0.2-1.2-1-1-1.8L68.3,113c0.2-0.8,1-1.2,1.8-1l50.2,13.4c0.8,0.2,1.2,1,1,1.8
				L107,180.5C106.8,181.3,106,181.7,105.3,181.5z"/>
			<path class="st68" d="M127,121.5l-4,15.1c-0.1,0.3-0.4,0.5-0.7,0.4L63,121.1c-0.3-0.1-0.5-0.4-0.4-0.7l4-15.1
				c0.1-0.3,0.4-0.5,0.7-0.4l59.3,15.9C126.9,120.8,127.1,121.2,127,121.5z"/>
		</g>
		<g>
			<polygon class="st69" points="87,176.7 99.3,130.8 102,120.5 103.6,114.6 89.9,111 88.4,116.9 85.6,127.2 73.4,173 			"/>
			<g>
				<path class="st65" d="M96,114.7c0.3,4.5,1.5,12.4,4.9,14.3c3.4,1.8,8.2,3.5,9.3-0.7s2.6-2.8,5.7-5.8s-18.3-8.9-19.5-9
					C96.1,114.3,96,114.7,96,114.7z"/>
				<path class="st69" d="M96.2,111.7c4.1,0.5,24.1-3.5,23.4,3.4s-3.4,7.4-23.9-1.8C96,112.7,96.2,111.7,96.2,111.7z"/>
				<path class="st65" d="M97.1,110.7c1.8-4.1,4.3-6.3,6.7-7c2.4-0.7,11.7-2.8,12.9-6.6s8.5,16.6,4.1,16s-10.3,3.1-13.9,3
					c-3.6-0.1-9.4-3.6-10.2-4C96.9,111.5,97.1,110.7,97.1,110.7z"/>
				<path class="st65" d="M95,114.3c-2.5,3.8-7.5,10-11.4,9.9s-8.8-1.1-7.7-5.2s-0.9-3.7-2-7.9c-1.1-4.1,20.3,1.4,21.4,1.9
					C95.2,113.9,95,114.3,95,114.3z"/>
				<path class="st69" d="M95.8,111.6c-3.8-1.6-19.1-15-22-8.8c-2.9,6.2-0.7,8.2,21.6,10.4C95.5,112.6,95.8,111.6,95.8,111.6z"/>
				<path class="st65" d="M96.1,110.2c0.5-4.5-0.6-7.6-2.3-9.4C92,99,85,92.6,85.9,88.7c1-3.9-15.6,10.2-11.5,11.9s7.4,7.9,10.5,9.5
					s10,1.6,10.8,1.6C95.9,111,96.1,110.2,96.1,110.2z"/>
				<path class="st69" d="M95.4,116.1l-1.5-0.4c-1.3-0.3-2-1.6-1.7-2.9l0.6-2.1c0.3-1.3,1.6-2,2.9-1.7l1.5,0.4
					c1.3,0.3,2,1.6,1.7,2.9l-0.6,2.1C98,115.7,96.7,116.4,95.4,116.1z"/>
			</g>
		</g>
	</g>
</g>
</svg>
